<?xml version="1.0" encoding="UTF-8" standalone="no"?>
<svg
   style="enable-background:new 0 0 67 67;"
   version="1.1"
   viewBox="0 0 67 67"
   xml:space="preserve"
   id="svg820"
   sodipodi:docname="goodreads.svg"
   inkscape:version="1.1.2 (b8e25be8, 2022-02-05)"
   xmlns:inkscape="http://www.inkscape.org/namespaces/inkscape"
   xmlns:sodipodi="http://sodipodi.sourceforge.net/DTD/sodipodi-0.dtd"
   xmlns="http://www.w3.org/2000/svg"
   xmlns:svg="http://www.w3.org/2000/svg"><defs
     id="defs824" /><sodipodi:namedview
     id="namedview822"
     pagecolor="#ffffff"
     bordercolor="#666666"
     borderopacity="1.0"
     inkscape:pageshadow="2"
     inkscape:pageopacity="0.0"
     inkscape:pagecheckerboard="0"
     showgrid="false"
     inkscape:zoom="11.089552"
     inkscape:cx="33.500001"
     inkscape:cy="33.500001"
     inkscape:window-width="1312"
     inkscape:window-height="969"
     inkscape:window-x="0"
     inkscape:window-y="468"
     inkscape:window-maximized="0"
     inkscape:current-layer="svg820" /><path
     id="path446"
     style="fill-rule:evenodd;clip-rule:evenodd;"
     d="M 33 4 C 16.432 4 3 17.431 3 34 C 3 50.569 16.432 64 33 64 C 49.568 64 63 50.569 63 34 C 63 17.431 49.568 4 33 4 z M 32.388672 16.464844 C 34.343736 16.464844 36.132753 16.933163 37.75 17.871094 C 39.353657 18.824002 40.50416 20.230832 41.197266 22.089844 L 41.287109 22.089844 L 41.287109 17.017578 L 43.091797 17.017578 L 43.091797 40.021484 C 43.091797 40.513851 43.044362 41.328469 42.951172 42.464844 C 42.828859 43.601219 42.451292 44.802565 41.820312 46.0625 C 41.185451 47.322435 40.145605 48.376378 38.697266 49.220703 C 37.233396 50.096854 35.18936 50.535156 32.570312 50.535156 C 29.91826 50.535156 27.729875 49.972961 26.003906 48.851562 C 24.231341 47.685233 23.252799 45.733211 23.068359 42.998047 L 24.873047 42.998047 C 25.119614 45.102307 25.965735 46.622616 27.416016 47.560547 C 28.833291 48.513454 30.566993 48.992188 32.617188 48.992188 C 34.745043 48.960361 36.401663 48.568997 37.589844 47.816406 C 38.789675 47.125594 39.661442 46.285596 40.201172 45.302734 C 40.73896 44.258092 41.071058 43.281105 41.195312 42.375 C 41.255503 41.498849 41.285156 40.855063 41.285156 40.439453 L 41.285156 34.861328 L 41.195312 34.861328 C 39.453811 38.519446 36.516233 40.362628 32.386719 40.392578 C 28.857121 40.360752 26.221971 39.201627 24.480469 36.910156 C 22.754499 34.667359 21.892578 31.834097 21.892578 28.40625 C 21.892578 25.072009 22.801934 22.26681 24.621094 19.992188 C 26.391718 17.702587 28.981387 16.526624 32.388672 16.464844 z M 32.386719 18.009766 C 29.457036 18.086523 27.284463 19.163975 25.867188 21.238281 C 24.403316 23.312587 23.667969 25.701202 23.667969 28.410156 C 23.667969 31.298833 24.417175 33.734224 25.912109 35.716797 C 27.391511 37.759277 29.550227 38.802809 32.386719 38.849609 C 35.39212 38.802806 37.616126 37.729179 39.066406 35.623047 C 40.514745 33.640475 41.238281 31.236973 41.238281 28.408203 C 41.238281 25.579434 40.514745 23.160882 39.066406 21.146484 C 37.618067 19.132086 35.39212 18.086526 32.386719 18.009766 z M 47.972656 24.933594 C 48.00184 24.950485 47.994328 24.998328 47.972656 25.056641 L 47.972656 24.933594 z " /></svg>
